<svg width="560" height="160" viewBox="0 0 560 160" fill="none" xmlns="http://www.w3.org/2000/svg" role="img" aria-label="devsink">
  <defs>
    <linearGradient id="badge" x1="0" y1="0" x2="256" y2="256" gradientUnits="userSpaceOnUse">
      <stop offset="0" stop-color="#1e293b"/><stop offset="1" stop-color="#0b1120"/>
    </linearGradient>
    <linearGradient id="accent" x1="64" y1="48" x2="180" y2="208" gradientUnits="userSpaceOnUse">
      <stop offset="0" stop-color="#38bdf8"/><stop offset="0.5" stop-color="#22d3ee"/><stop offset="1" stop-color="#34d399"/>
    </linearGradient>
  </defs>
  <g transform="translate(8,8) scale(0.5625)">
    <rect x="2" y="2" width="252" height="252" rx="58" fill="url(#badge)"/>
    <rect x="2.75" y="2.75" width="250.5" height="250.5" rx="57.25" fill="none" stroke="#475569" stroke-opacity="0.45" stroke-width="1.5"/>
    <g stroke="url(#accent)" stroke-linecap="round" stroke-linejoin="round" fill="none">
      <path d="M90 52 H166" stroke-width="11"/>
      <path d="M98 70 H158" stroke-width="11"/>
      <path d="M106 88 H150" stroke-width="11"/>
      <path d="M72 100 L119 156 L119 178 L137 178 L137 156 L184 100" stroke-width="13"/>
      <path d="M104 196 H152" stroke-width="11"/>
      <path d="M112 213 H144" stroke-width="11"/>
    </g>
    <circle cx="128" cy="189" r="4" fill="url(#accent)"/>
  </g>
  <g transform="translate(180,45) scale(0.846)">
    <path d="M38.62 34.38 L38.62 5.31 L52.88 5.31 L52.88 81.30 L38.62 81.30 L38.62 73.19 Q36.33 77.92 32.69 80.33 Q29.05 82.72 24.12 82.72 Q14.75 82.72 9.56 75.20 Q4.39 67.67 4.39 54.00 Q4.39 40.14 9.64 32.72 Q14.89 25.30 24.61 25.30 Q29.00 25.30 32.48 27.56 Q35.98 29.83 38.62 34.38 Z M18.70 54.09 Q18.70 62.02 21.33 66.52 Q23.97 71.00 28.61 71.00 Q33.25 71.00 35.94 66.52 Q38.62 62.02 38.62 54.09 Q38.62 46.19 35.94 41.70 Q33.25 37.20 28.61 37.20 Q23.97 37.20 21.33 41.70 Q18.70 46.19 18.70 54.09 Z M114.02 78.61 Q109.03 80.66 103.86 81.69 Q98.69 82.72 92.92 82.72 Q79.21 82.72 71.96 75.38 Q64.71 68.02 64.71 54.20 Q64.71 40.81 71.67 33.06 Q78.66 25.30 90.72 25.30 Q102.88 25.30 109.60 32.50 Q116.31 39.69 116.31 52.78 L116.31 58.59 L79.25 58.59 Q79.30 65.03 83.05 68.22 Q86.81 71.39 94.28 71.39 Q99.22 71.39 104.00 69.97 Q108.78 68.55 114.02 65.47 L114.02 78.61 Z M101.91 47.84 Q101.81 42.19 99.00 39.28 Q96.19 36.38 90.72 36.38 Q85.80 36.38 82.86 39.38 Q79.94 42.38 79.39 47.89 L101.91 47.84 Z M176.71 26.61 L159.33 81.30 L141.71 81.30 L124.32 26.61 L138.82 26.61 L150.49 69.28 L162.21 26.61 L176.71 26.61 Z M229.01 28.31 L229.01 40.81 Q225.05 38.28 220.77 36.98 Q216.51 35.69 212.21 35.69 Q207.43 35.69 204.97 37.08 Q202.54 38.47 202.54 41.20 Q202.54 45.11 212.99 47.56 L213.52 47.70 L217.63 48.67 Q225.44 50.53 229.07 54.66 Q232.71 58.78 232.71 65.81 Q232.71 74.27 227.16 78.50 Q221.63 82.72 210.51 82.72 Q205.57 82.72 200.38 81.86 Q195.21 81.00 189.90 79.30 L189.90 66.80 Q194.63 69.48 199.54 70.91 Q204.44 72.31 209.04 72.31 Q214.07 72.31 216.65 70.84 Q219.24 69.38 219.24 66.59 Q219.24 63.86 217.41 62.41 Q215.58 60.94 208.69 59.28 L204.74 58.39 Q196.54 56.55 192.77 52.59 Q189.02 48.62 189.02 41.98 Q189.02 34.08 194.72 29.69 Q200.44 25.30 210.79 25.30 Q215.43 25.30 220.04 26.05 Q224.66 26.80 229.01 28.31 Z M251.62 26.61 L279.93 26.61 L279.93 70.31 L297.71 70.31 L297.71 81.30 L247.80 81.30 L247.80 70.31 L265.63 70.31 L265.63 37.59 L251.62 37.59 L251.62 26.61 Z M265.63 0.00 L279.93 0.00 L279.93 16.70 L265.63 16.70 L265.63 0.00 Z M353.32 45.80 L353.32 81.30 L339.12 81.30 L339.12 48.00 Q339.12 42.03 337.43 39.47 Q335.74 36.91 331.93 36.91 Q328.07 36.91 325.85 40.38 Q323.63 43.84 323.63 50.00 L323.63 81.30 L309.43 81.30 L309.43 26.61 L323.63 26.61 L323.63 34.81 Q325.15 30.27 328.81 27.78 Q332.48 25.30 337.65 25.30 Q345.42 25.30 349.37 30.45 Q353.32 35.59 353.32 45.80 Z M369.73 5.31 L384.03 5.31 L384.03 45.22 L401.21 26.61 L418.56 26.61 L397.86 47.02 L419.73 81.30 L403.90 81.30 L388.92 55.70 L384.03 60.39 L384.03 81.30 L369.73 81.30 L369.73 5.31 Z" fill="#e2e8f0"/>
  </g>
</svg>
